<svg xmlns="http://www.w3.org/2000/svg" xmlns:osb="http://www.openswatchbook.org/uri/2009/osb" xmlns:svg="http://www.w3.org/2000/svg" xmlns:xlink="http://www.w3.org/1999/xlink" id="SVGRoot" width="250" height="250" version="1.1" viewBox="0 0 250 250"><title id="title5441">cherrydoor</title><defs id="defs4645"><linearGradient id="linearGradient5404" osb:paint="gradient"><stop id="stop5400" offset="0" stop-color="#e0dfdb" stop-opacity="1"/><stop id="stop5402" offset="1" stop-color="#e0dfdb" stop-opacity="0"/></linearGradient><linearGradient id="linearGradient5394"><stop id="stop5390" offset="0" stop-color="#000" stop-opacity="1"/><stop id="stop5392" offset="1" stop-color="#000" stop-opacity="0"/></linearGradient><radialGradient id="radialGradient5396" cx="55" cy="120" r="5.5" fx="55" fy="120" gradientUnits="userSpaceOnUse" xlink:href="#linearGradient5394"/></defs><metadata id="metadata4648"/><g id="layer1"><rect id="rect5211" width="160" height="250" x="45" y="0" fill="#6a1616" fill-opacity="1" stroke="#541111" stroke-opacity=".502"/><rect id="rect5229" width="60" height="95" x="60" y="15" fill="#551212" fill-opacity=".533" stroke="#541111" stroke-opacity=".561"/><rect id="rect5229-3" width="60" height="95" x="130" y="15" fill="#551212" fill-opacity=".533" stroke="#541111" stroke-opacity=".561"/><rect id="rect5229-39" width="60" height="95" x="60" y="125" fill="#551212" fill-opacity=".533" stroke="#541111" stroke-opacity=".561"/><rect id="rect5229-7" width="60" height="95" x="130" y="125" fill="#551212" fill-opacity=".533" stroke="#541111" stroke-opacity=".561"/><path id="path10" fill="#e64546" stroke-width=".202" d="m 155,120 c 8.46264,-2.95279 10.34099,-7.56379 10.88184,-11.63314 0.34532,-2.59457 0.45396,-6.43875 -1.20083,-9.971887 -2.96569,-6.33252 -9.7814,-9.39658 -15.22393,-6.84736 -2.43593,1.141161 -3.57648,2.68085 -5.99769,3.814141 -2.421,1.13471 -4.33564,1.02586 -6.77096,2.167219 -5.44193,2.549217 -7.4503,9.747127 -4.48461,16.079447 1.65479,3.53314 4.67892,5.90879 6.89332,7.30535 3.47307,2.19061 8.21732,3.69845 15.90286,-0.91377 z"/><path id="path10-3" fill="#e64546" stroke-width=".202" d="m 95,120 c -8.46264,-2.95279 -10.34099,-7.56379 -10.88184,-11.63314 -0.34532,-2.59457 -0.45396,-6.43875 1.20083,-9.971886 2.96569,-6.33252 9.7814,-9.39658 15.22393,-6.84736 2.43593,1.141161 3.57648,2.68085 5.99769,3.814141 2.421,1.13471 4.33564,1.02586 6.77096,2.167219 5.44193,2.549216 7.4503,9.747126 4.48461,16.079446 -1.65479,3.53314 -4.67892,5.90879 -6.89332,7.30535 C 107.42979,123.10438 102.68554,124.61222 95,120 Z"/><path id="path5329" fill="none" stroke="#23962d" stroke-dasharray="none" stroke-linecap="round" stroke-linejoin="miter" stroke-miterlimit="4" stroke-opacity="1" stroke-width="2.5" d="m 106,95 c 5.66764,-6.001029 11.3343,-12.001026 14.50046,-20.000187 3.16616,-7.999162 3.83294,-18.000875 2.66633,-25.166884 C 122.00018,42.66692 118.99986,38.333125 115.83354,35.33337 112.66723,32.333615 109.33373,30.666865 106,29" transform="translate(1)"/><path id="path5333" fill="none" stroke="#23962d" stroke-dasharray="none" stroke-linecap="round" stroke-linejoin="miter" stroke-miterlimit="4" stroke-opacity="1" stroke-width="2.5" d="m 143,95 c -2.66677,-3.333458 -5.33343,-6.666786 -7.50011,-11.500289 -2.16668,-4.833502 -3.8334,-11.167066 -5,-17.000196 -1.16659,-5.833129 -1.83333,-11.167043 -3.16654,-15.499824 -1.3332,-4.332781 -3.33353,-7.666652 -5.83328,-10.666361 -2.49975,-2.99971 -5.49995,-5.666554 -7.99983,-7.499852 C 111.00036,31.00018 109.0004,30.0002 107,29"/><circle id="path5359" cx="107" cy="29" r="1.375" fill="#236a2d" fill-opacity="1" stroke="none" stroke-dasharray="none" stroke-linecap="round" stroke-miterlimit="4" stroke-opacity="1" stroke-width="1.146"/><circle id="path5363" cx="55" cy="120" r="5" fill="#e0dfdb" fill-opacity="1" stroke="url(#radialGradient5396)" stroke-dasharray="none" stroke-linecap="round" stroke-miterlimit="4" stroke-opacity="1" stroke-width="1"/><path id="path5398" fill="#e0dfdb" fill-opacity="1" stroke="#e0dfda" stroke-dasharray="none" stroke-linecap="round" stroke-linejoin="miter" stroke-miterlimit="4" stroke-opacity="1" stroke-width="2.5" d="M 55,120 H 74"/></g></svg>