<?xml version="1.0" encoding="utf-8"?>
<svg width="64px" height="64px" viewBox="0 0 64 64" version="1.1" xmlns:xlink="http://www.w3.org/1999/xlink" xmlns="http://www.w3.org/2000/svg">
  <desc>Created with Lunacy</desc>
  <defs>
    <path d="M0 0L32 0L32 32L0 32L0 0Z" id="path_1" />
    <rect width="64" height="63.99997" id="artboard_1" />
    <clipPath id="clip_1">
      <use xlink:href="#artboard_1" clip-rule="evenodd" />
    </clipPath>
    <clipPath id="mask_1">
      <use xlink:href="#path_1" />
    </clipPath>
  </defs>
  <g id="Cherrydoor_logo" clip-path="url(#clip_1)">
    <use xlink:href="#artboard_1" stroke="none" fill="#FFFFFF" fill-opacity="0" />
    <g id="icons8_padlock_1" transform="translate(6 0)">
      <path d="M0 19L0 26L6 26L6 18C6 11.3726 11.3726 6 18 6L20 6C26.6274 6 32 11.3726 32 18L32 20L38 20L38 19C38 8.50659 29.4934 0 19 0L19 0C8.50659 0 0 8.50659 0 19L0 19Z" transform="translate(7 1)" id="Shape" fill="#E01A46" stroke="none" />
      <path d="M0 0L6 0L6 6L0 6L0 0Z" transform="translate(23 1)" id="Shape" fill="#72CAAF" stroke="none" />
      <path d="M0 6L0 3C0 2.17157 0.292893 1.46447 0.87868 0.87868C1.46447 0.292893 2.17157 0 3 0L47 0C47.8284 0 48.5355 0.292893 49.1213 0.87868C49.7071 1.46447 50 2.17157 50 3L50 31C50 31.8284 49.7071 32.5355 49.1213 33.1213C48.5355 33.7071 47.8284 34 47 34L3 34C2.17157 34 1.46447 33.7071 0.87868 33.1213C0.292893 32.5355 0 31.8284 0 31L0 6Z" transform="translate(1 27)" id="Rectangle" fill="#EE4854" stroke="none" />
      <path d="M4 0L46 0C48.2091 0 50 1.79086 50 4L50 16C50 17.6569 48.6569 19 47 19L3 19C1.34315 19 0 17.6569 0 16L0 4C0 1.79086 1.79086 0 4 0L4 0Z" transform="translate(1 42)" id="Shape" fill="#D1404A" stroke="none" />
      <path d="M14 26L49 26C50.6569 26 52 27.3431 52 29L52 59C52 60.6569 50.6569 62 49 62L3 62C1.34315 62 0 60.6569 0 59L0 29C0 27.3431 1.34315 26 3 26L6 26L6 19C6 8.50659 14.5066 0 25 0L27 0C37.4934 0 46 8.50659 46 19C46 20.6569 44.6569 22 43 22L41 22C39.3431 22 38 20.6569 38 19C38 12.9249 33.0751 8 27 8L25 8C18.9249 8 14 12.9249 14 19L14 26ZM28 2.05C27.67 2 27.34 2 27 2L25 2C24.66 2 24.33 2.05 24 2.05L24 6.05C24.33 6 24.66 6 25 6L27 6C27.34 6 27.67 6 28 6.05L28 2.05ZM8 19C8.00696 10.7722 13.9035 3.73098 22.0012 2.27979L22 6.35999C16.1419 7.74937 12.0042 12.9794 12 19L12 26L8 26L8 19ZM44 19C44 19.5523 43.5523 20 43 20L41 20C40.4477 20 40 19.5523 40 19C39.9953 12.9784 35.8573 7.74874 29.9991 6.35979L30 2.28C38.0975 3.73175 43.9936 10.7734 44 19ZM49 60C49.5523 60 50 59.5523 50 59L50 29C50 28.4477 49.5523 28 49 28L3 28C2.44771 28 2 28.4477 2 29L2 59C2 59.5523 2.44771 60 3 60L49 60Z" id="Shape" fill="#771213" fill-rule="evenodd" stroke="none" />
      <path d="M1 0L35 0C35.5523 0 36 0.447716 36 1C36 1.55228 35.5523 2 35 2L1 2C0.447715 2 0 1.55228 0 1C0 0.447716 0.447715 0 1 0ZM39 0L43 0C43.5523 0 44 0.447716 44 1C44 1.55228 43.5523 2 43 2L39 2C38.4477 2 38 1.55228 38 1C38 0.447716 38.4477 0 39 0Z" transform="translate(4 55.99994)" id="Shape" fill="#771213" fill-rule="evenodd" stroke="none" />
      <g id="icons8-cherry-64" transform="translate(10.00006 25.99997)">
        <path d="M0 0L32 0L32 32L0 32L0 0Z" id="Background" fill="none" stroke="none" />
        <g clip-path="url(#mask_1)">
          <g id="Group">
            <path d="M0 32L0 0L32 0L32 32L0 32Z" id="Shape" fill="none" stroke="none" />
            <g id="Group" transform="translate(3.000011 3)">
              <path d="M13.793 5.6195C13.793 3.3015 12.5 0 9.9135 0C8.1895 0 8.387 0.8785 6.8965 0.8785C5.429 0.8785 5.6035 0.0165008 3.8795 0.0165008C1.2935 0.0165008 0 3.2785 0 5.62C0 9.4285 3.0875 12.516 6.8965 12.516C10.7055 12.516 13.793 9.4285 13.793 5.6195L13.793 5.6195Z" transform="translate(11.707 12.984)" id="Shape" fill="#E01A46" stroke="none" />
              <path d="M6.8965 9.234C7.7165 9.234 8.4995 9.0835 9.229 8.821C9.033 7.709 8.065 6.8635 6.8965 6.8635C4.401 6.8635 2.3705 4.833 2.3705 2.3375C2.3705 1.1575 1.5075 0.1815 0.378999 0C0.126497 0.783999 0 1.6055 0 2.3375C0 6.1465 3.0875 9.234 6.8965 9.234L6.8965 9.234Z" transform="translate(11.707 16.266)" id="Shape" fill="#EE4854" stroke="none" />
              <path d="M13.793 5.6195C13.793 3.3015 12.5 0 9.9135 0C8.1895 0 8.387 0.8785 6.8965 0.8785C5.429 0.8785 5.6035 0.0165008 3.8795 0.0165008C1.293 0.0159997 0 3.278 0 5.6195C0 9.4285 3.0875 12.516 6.8965 12.516C10.7055 12.516 13.793 9.4285 13.793 5.6195L13.793 5.6195Z" transform="translate(0.5 12.984)" id="Shape" fill="#E01A46" stroke="none" />
              <path d="M6.8965 9.234C7.7165 9.234 8.4995 9.0835 9.229 8.821C9.033 7.709 8.065 6.8635 6.8965 6.8635C4.401 6.8635 2.3705 4.833 2.3705 2.3375C2.3705 1.1575 1.5075 0.1815 0.378999 0C0.126499 0.783999 0 1.6055 0 2.3375C0 6.1465 3.0875 9.234 6.8965 9.234L6.8965 9.234Z" transform="translate(0.5 16.266)" id="Shape" fill="#EE4854" stroke="none" />
              <path d="M15.5175 0C15.5175 0 12.069 0 10.345 0C4.3105 0 0 6.8965 0 6.8965C0 6.8965 4.3105 8.6205 7.7585 8.6205C14.6555 8.6205 15.5175 0 15.5175 0L15.5175 0Z" transform="translate(3.085994 0.5)" id="Shape" fill="#72CAAF" stroke="none" />
              <g id="Group">
                <path d="M19.5825 13.1215C19.967 12.8445 20.4455 12.5 21.5 12.5C24.4365 12.5 26 16.0445 26 18.6035C26 22.682 22.682 26 18.6035 26C16.419 26 14.4095 25.0585 13.002 23.416C11.6445 24.9945 9.6375 26 7.3965 26C3.318 26 0 22.682 0 18.6035C0 16.142 1.392 12.5 4.3795 12.5C5.426 12.5 5.942 12.8395 6.3565 13.113C6.582 13.261 6.7675 13.381 7.026 13.4465C7.0255 12.9605 7.019 12.564 7.0125 12.181C7.0065 11.8015 7 11.433 7 11C7 10.379 7.065 9.762 7.172 9.157C4.902 8.652 3.0185 7.908 2.9005 7.861C2.767 7.8075 2.663 7.6985 2.615 7.563C2.567 7.427 2.58 7.277 2.6505 7.1515C2.8145 6.8595 6.75 0 13.431 0L18.6035 0C18.6745 0 18.7415 0.0154997 18.802 0.0414996C18.817 0.0480002 18.828 0.0605007 18.8425 0.0685006C18.887 0.0935016 18.9295 0.120501 18.9645 0.157001C18.9675 0.160002 18.9715 0.161001 18.974 0.164002C18.988 0.179502 18.993 0.200002 19.005 0.217001C19.0295 0.252 19.0535 0.286 19.0685 0.326501C19.079 0.355 19.0805 0.384001 19.086 0.414C19.0915 0.443001 19.1035 0.4695 19.1035 0.5C19.1035 0.509 19.099 0.516499 19.0985 0.5255C19.0983 0.529536 19.099 0.533346 19.0998 0.537145C19.1007 0.541353 19.1015 0.545538 19.101 0.55C19.0955 0.6075 18.69 4.284 16.512 6.938C16.5125 6.9475 16.5175 6.9555 16.5175 6.9655C16.5175 8.966 17.387 11.1325 19.101 13.4055C19.2795 13.3375 19.4195 13.239 19.5825 13.1215ZM13.431 1L15.491 1C14.6565 1.5375 13.8955 2.2265 13.1475 2.9065C11.68 4.24 10.294 5.5 8.49999 5.5C8.22399 5.5 7.99999 5.724 7.99999 6C7.99999 6.276 8.22399 6.5 8.49999 6.5C10.6805 6.5 12.2765 5.0495 13.8205 3.646C15.1565 2.432 16.427 1.2805 18.0145 1.046C17.6715 2.9265 16.191 8.6205 10.845 8.6205C8.2515 8.6205 5.09899 7.594 3.835 7.142C4.8575 5.5965 8.32849 1 13.431 1ZM15.5765 7.9075C14.412 8.919 12.874 9.6205 10.8445 9.6205C9.969 9.6205 9.0465 9.515 8.1515 9.356C8.058 9.896 8 10.4455 8 11C8 11.427 8.0065 11.79 8.013 12.164C8.0195 12.547 8.026 12.9445 8.0265 13.429C8.2215 13.365 8.3595 13.261 8.5295 13.1305C8.8955 12.8495 9.351 12.5 10.414 12.5C11.473 12.5 12.3275 12.963 12.9945 13.6635C13.7245 12.9005 14.6125 12.5 15.586 12.5C16.6515 12.5 17.112 12.8505 17.482 13.132C17.612 13.2315 17.7235 13.3145 17.854 13.377C16.5455 11.492 15.779 9.6585 15.5765 7.9075ZM7.3965 25C3.8695 25 1 22.1305 1 18.6035C1 16.464 2.1745 13.5 4.3795 13.5C5.1265 13.5 5.442 13.7075 5.807 13.948C6.2005 14.207 6.646 14.5 7.5 14.5C8.388 14.5 8.804 14.1805 9.1385 13.924C9.447 13.687 9.69 13.5 10.414 13.5C12.619 13.5 13.7935 16.464 13.7935 18.6035C13.793 22.1305 10.9235 25 7.3965 25ZM13.6145 22.594C14.8365 24.1215 16.639 25 18.6035 25C22.1305 25 25 22.1305 25 18.6035C25 16.5175 23.7535 13.5 21.5 13.5C20.768 13.5 20.5025 13.691 20.1665 13.933C19.816 14.1855 19.3795 14.5 18.5 14.5C17.627 14.5 17.2105 14.183 16.876 13.928C16.562 13.689 16.314 13.5 15.586 13.5C14.842 13.5 14.1815 13.828 13.6185 14.4675C14.4085 15.7105 14.793 17.3165 14.793 18.6035C14.793 20.0735 14.357 21.4415 13.6145 22.594Z" id="Shape" fill="#771213" fill-rule="evenodd" stroke="none" />
                <path d="M21.7548 0.304665C21.6468 0.0506649 21.3543 -0.0683338 21.0988 0.040164C20.8448 0.148164 20.7263 0.441663 20.8343 0.696164C21.0398 1.17966 21.1623 1.76666 21.1623 2.26616C21.1623 3.20816 20.7958 4.09366 20.1298 4.75916C19.9343 4.95416 19.9343 5.27066 20.1298 5.46616C20.2273 5.56366 20.3553 5.61266 20.4833 5.61266C20.6113 5.61266 20.7393 5.56366 20.8368 5.46616C21.6918 4.61166 22.1623 3.47516 22.1623 2.26616C22.1623 1.62916 22.0138 0.914663 21.7548 0.304665ZM1.31632 1.58716L0.465819 1.44716C0.193318 1.40216 0.00981885 1.14516 0.0543192 0.872661C0.0988198 0.60016 0.35282 0.41666 0.62882 0.460661L1.47932 0.600661C1.75182 0.645161 1.93632 0.90266 1.89132 1.17516C1.85082 1.41966 1.63882 1.59366 1.39832 1.59366C1.37132 1.59366 1.34382 1.59166 1.31632 1.58716ZM1.77432 3.02417C1.67733 2.76566 1.38882 2.63467 1.13032 2.73267L0.323824 3.03667C0.0653236 3.13367 -0.0651767 3.42217 0.0323245 3.68067C0.107824 3.88117 0.297824 4.00467 0.500325 4.00467C0.558825 4.00467 0.618325 3.99417 0.676825 3.97217L1.48333 3.66817C1.74133 3.57116 1.87183 3.28267 1.77432 3.02417ZM1.34782 5.41967L1.89432 4.75316C2.06932 4.54016 2.38532 4.50916 2.59832 4.68366C2.81182 4.85916 2.84282 5.17417 2.66782 5.38766L2.12132 6.05416C2.02232 6.17466 1.87882 6.23716 1.73432 6.23716C1.62282 6.23716 1.51032 6.19966 1.41732 6.12367C1.20382 5.94816 1.17282 5.63316 1.34782 5.41967ZM4.14133 5.70867C3.86683 5.66366 3.61183 5.84867 3.56683 6.12066L3.42683 6.97117C3.38183 7.24367 3.56633 7.50117 3.83883 7.54566C3.86633 7.55016 3.89383 7.55217 3.92083 7.55217C4.16133 7.55217 4.37333 7.37816 4.41383 7.13367L4.55383 6.28317C4.59833 6.01116 4.41383 5.75367 4.14133 5.70867ZM5.98983 5.82567C6.24833 5.72817 6.53633 5.85866 6.63383 6.11716L6.93833 6.92367C7.03583 7.18217 6.90533 7.47067 6.64683 7.56767C6.58833 7.58967 6.52883 7.60017 6.47033 7.60017C6.26783 7.60017 6.07783 7.47667 6.00233 7.27617L5.69833 6.46967C5.60083 6.21117 5.73133 5.92267 5.98983 5.82567Z" transform="translate(2.113667 16.28634)" id="Shape" fill="#771213" fill-rule="evenodd" stroke="none" />
              </g>
            </g>
          </g>
        </g>
      </g>
    </g>
  </g>
</svg>